<?xml version="1.0" encoding="UTF-8"?>
<svg id="Layer_1" style='fill: currentColor;' xmlns="http://www.w3.org/2000/svg" version="1.1" viewBox="0 0 300 300">
  <!-- Generator: Adobe Illustrator 29.8.3, SVG Export Plug-In . SVG Version: 2.1.1 Build 3)  -->
  <path d="M86.8,114c-.8,9.6-1.2,16.5-1.2,20.8,0,17,2.5,33.6,7.5,49.8,5,16.2,11.7,29.7,20.3,40.5,8.8,10.9,19.6,19.5,32.6,25.8,13,6.3,26.5,9.4,40.8,9.4s20.5-1.8,29.9-5.3c9.4-3.5,17.3-8.4,23.5-14.7,7-6.8,13-17.8,18.1-32.8l6.2,2.1c-5.1,22.9-16,40.1-32.7,51.7-16.7,11.6-38.9,17.4-66.7,17.4s-44.7-3.8-61.9-11.4c-17.2-7.6-31.8-19.3-43.7-35.2-16.6-22.1-24.9-49.3-24.9-81.5s15.7-78.5,47.2-103.5c22.9-18.2,49-27.3,78.3-27.3s30.1,2.8,43.4,8.4c13.3,5.6,24.5,13.6,33.7,24.2,14.3,16.4,21.4,36.9,21.4,61.6H86.8ZM214.6,102.6c-1.4-19.5-5-34.6-10.8-45.1-5.3-9.6-12.3-17.2-21-22.7-8.8-5.6-18.1-8.4-28-8.4-16.7,0-31.4,7.2-43.9,21.7-12.6,14.5-20,32.6-22.3,54.5h126.1Z"/>
</svg>